HIERARCHY
ROOT Hips
{
	OFFSET 0.00000 0.00000 0.00000
	CHANNELS 6 Xposition Yposition Zposition Zrotation Yrotation Xrotation 
	JOINT LHipJoint
	{
		OFFSET 0 0 0
		CHANNELS 3 Zrotation Yrotation Xrotation
		JOINT LeftHip
		{
			OFFSET 1.75344 -1.53157 0.77399
			CHANNELS 3 Zrotation Yrotation Xrotation
			JOINT LeftKnee
			{
				OFFSET 2.25415 -6.19323 0.00000
				CHANNELS 3 Zrotation Yrotation Xrotation
				JOINT LeftAnkle
				{
					OFFSET 2.30342 -6.32861 0.00000
					CHANNELS 3 Zrotation Yrotation Xrotation
					JOINT LeftToe
					{
						OFFSET 0.10958 -0.30108 1.49206
						CHANNELS 3 Zrotation Yrotation Xrotation
						End Site
						{
							OFFSET 0.00000 -0.00000 0.77783
						}
					}
				}
			}
		}
	}
	JOINT RHipJoint
	{
		OFFSET 0 0 0
		CHANNELS 3 Zrotation Yrotation Xrotation
		JOINT RightHip
		{
			OFFSET -1.81912 -1.53156 0.77399
			CHANNELS 3 Zrotation Yrotation Xrotation
			JOINT RightKnee
			{
				OFFSET -2.22882 -6.12365 0.00000
				CHANNELS 3 Zrotation Yrotation Xrotation
				JOINT RightAnkle
				{
					OFFSET -2.21943 -6.09785 0.00000
					CHANNELS 3 Zrotation Yrotation Xrotation
					JOINT RightToe
					{
						OFFSET -0.18931 -0.52012 1.59379
						CHANNELS 3 Zrotation Yrotation Xrotation
						End Site
						{
							OFFSET -0.00000 -0.00000 0.84686
						}
					}
				}
			}
		}
	}
	JOINT lowerback
	{
		OFFSET 0 0 0
		CHANNELS 3 Zrotation Yrotation Xrotation
		JOINT Chest
		{
			OFFSET -0.00200 1.66634 -0.14248
			CHANNELS 3 Zrotation Yrotation Xrotation
			JOINT Chest2
			{
				OFFSET -0.00875 1.64542 0.09514
				CHANNELS 3 Zrotation Yrotation Xrotation
				JOINT lowerneck
				{
					OFFSET 0 0 0
					CHANNELS 3 Zrotation Yrotation Xrotation
					JOINT Neck
					{
						OFFSET 0.02257 1.59605 0.00839
						CHANNELS 3 Zrotation Yrotation Xrotation
						JOINT Head
						{
							OFFSET -0.10214 1.57530 -0.23335
							CHANNELS 3 Zrotation Yrotation Xrotation
							End Site
							{
								OFFSET -0.03588 1.60717 -0.08062
							}
						}
					}
				}
				JOINT LeftCollar
				{
					OFFSET 0 0 0
					CHANNELS 3 Zrotation Yrotation Xrotation
					JOINT LeftShoulder
					{
						OFFSET 2.54983 1.10186 0.40078
CHANNELS 3 Zrotation Xrotation Yrotation
						JOINT LeftElbow
						{
OFFSET 0 -4.288400 0.000000
CHANNELS 3 Zrotation Xrotation Yrotation
							JOINT LeftWrist
							{
OFFSET 0 -3.065520 -0.000000
CHANNELS 3 Zrotation Xrotation Yrotation
								JOINT lhand
								{
									OFFSET 0 0 0
CHANNELS 3 Zrotation Xrotation Yrotation
									JOINT LFingers
									{
OFFSET 0 -0.753040 0.000000
CHANNELS 3 Zrotation Xrotation Yrotation
										End Site
										{
OFFSET 0 -0.607120 0.000000
										}
									}
								}
								JOINT LThumb
								{
OFFSET 0 0.000000 0.000000
CHANNELS 3 Zrotation Xrotation Yrotation
									End Site
									{
OFFSET 0 -0.616390 0.616390
									}
								}
							}
						}
					}
				}
				JOINT RightCollar
				{
					OFFSET 0 0 0
					CHANNELS 3 Zrotation Yrotation Xrotation
					JOINT RightShoulder
					{
						OFFSET -2.60909 1.35448 0.21802
CHANNELS 3 Zrotation Xrotation Yrotation
						JOINT RightElbow
						{
OFFSET 0 -4.521720 -0.000000
CHANNELS 3 Zrotation Xrotation Yrotation
							JOINT RightWrist
							{
OFFSET 0 -2.891400 0.000000
CHANNELS 3 Zrotation Xrotation Yrotation
								JOINT rhand
								{
									OFFSET 0 0 0
CHANNELS 3 Zrotation Xrotation Yrotation
									JOINT RFingers
									{
OFFSET 0 -0.680540 0.000000
CHANNELS 3 Zrotation Xrotation Yrotation
										End Site
										{
OFFSET 0 -0.548670 0.000000
										}
									}
								}
								JOINT RThumb
								{
OFFSET 0 0.000000 0.000000
CHANNELS 3 Zrotation Xrotation Yrotation
									End Site
									{
OFFSET 0 -0.557050 0.557050
									}
								}
							}
						}
					}
				}
			}
		}
	}
}
MOTION
Frames: 6
Frame Time: 0.008333333333333333
8.773688 15.318439 -26.564501 -182.734957 -6.235791 -184.582245 0.000000 0.000000 0.000000 -37.308620 -5.438614 8.989332 0.686633 5.297703 14.759619 0.707730 12.955001 -25.357904 0.437908 4.246239 11.770513 0.000000 0.000000 0.000000 13.399547 1.007546 -20.789479 -14.239229 -19.184509 72.933413 -0.221648 -6.476744 -13.531161 -0.050010 1.385612 -3.811357 0.864062 0.303093 1.059957 -0.627746 0.242485 -4.481651 -1.140455 -0.002034 -5.215509 -7.764607 -2.807376 -1.025100 4.210417 -4.739673 14.761407 2.336861 -2.832772 4.870809 0.000000 0.000000 0.000000 6.011132 10.962348 -17.886943 19.799943 -30.400445 5.429841 5.725444 17.933307 31.944910 0.000000 0.000000 0.000000 -7.125000 0.000000 0.000000 -14.635779 -1.189019 -15.444902 0.000000 0.000000 0.000000 -8.796762 18.196488 29.387092 -20.712162 -31.490632 -5.898925 4.705114 8.524231 55.125245 0.000000 0.000000 0.000000 7.125000 0.000000 0.000000 80.823630 70.240513 -59.525631
8.740308 15.272535 -26.802727 -182.676346 -7.254927 -184.606514 0.000000 0.000000 0.000000 -37.460770 -5.725441 9.671686 0.794993 5.691333 15.891304 0.993302 11.834776 -26.527214 0.533852 4.678937 12.995612 0.000000 0.000000 0.000000 13.580291 6.287134 -22.645776 -12.290693 -18.510105 66.906522 -0.446787 -9.419996 -19.376648 -0.002299 -0.308339 0.847100 0.455908 -0.826477 1.835295 -0.164276 -1.248286 -4.496327 -0.334654 -0.708432 -5.695058 -5.660767 -1.955307 -1.168141 1.879657 -3.373109 14.749304 1.335254 -2.182067 4.737575 0.000000 0.000000 0.000000 5.953147 10.410891 -19.191140 20.079308 -30.737807 5.571875 6.741674 16.708984 31.998813 0.000000 0.000000 0.000000 -7.125000 0.000000 0.000000 -14.073130 -1.355888 -14.853473 0.000000 0.000000 0.000000 -9.649859 18.286924 28.622920 -20.607802 -31.367676 -5.844451 3.448304 9.008623 54.806096 0.000000 0.000000 0.000000 7.125000 0.000000 0.000000 79.394759 70.604235 -58.570308
8.709110 15.227251 -27.062529 -183.163292 -8.551678 -184.461486 0.000000 0.000000 0.000000 -37.875455 -5.169697 10.738175 0.780776 5.641126 15.746733 1.169130 10.308818 -26.547468 0.415501 4.137028 11.462491 0.000000 0.000000 0.000000 12.768054 11.445243 -22.861144 -9.622125 -17.190705 58.216180 -0.460912 -10.988678 -21.126668 -0.045929 1.383212 -3.803865 -0.608078 -1.804801 2.033828 0.153894 -2.586314 -4.456306 0.685476 -1.312590 -5.719939 -4.135913 -1.183361 -0.686344 0.182972 -2.230633 14.130069 0.668325 -1.645853 4.879101 0.000000 0.000000 0.000000 5.653391 9.950820 -20.086403 20.353362 -31.065694 5.712600 6.378524 16.484711 32.314248 0.000000 0.000000 0.000000 -7.125000 0.000000 0.000000 -14.289417 -1.619113 -15.161752 0.000000 0.000000 0.000000 -10.455655 18.779871 26.776331 -20.403643 -31.125561 -5.738589 3.610435 9.329218 54.579023 0.000000 0.000000 0.000000 7.125000 0.000000 0.000000 78.844463 70.499144 -57.902950
8.687964 15.214007 -27.323204 -183.108327 -9.894179 -184.163424 0.000000 0.000000 0.000000 -37.350151 -4.307141 11.764660 0.714523 5.401886 15.058414 1.249475 8.941364 -26.086398 0.126969 2.293480 6.317677 0.000000 0.000000 0.000000 12.152374 17.067419 -22.184737 -6.675239 -15.048498 47.628409 -0.676189 -10.318466 -22.511318 -0.063248 1.553894 -4.275821 -1.371043 -2.659205 2.233968 0.581280 -3.721775 -4.163358 1.626998 -1.825725 -5.435092 -2.663634 -0.507279 -0.977957 -0.906809 -1.170754 13.581709 0.087376 -1.065087 4.678324 0.000000 0.000000 0.000000 5.222255 8.955888 -20.864372 20.857378 -31.661481 5.974944 6.416692 15.817595 31.969321 0.000000 0.000000 0.000000 -7.125000 0.000000 0.000000 -14.252561 -1.289932 -15.038823 0.000000 0.000000 0.000000 -10.933104 18.707735 24.528121 -19.899221 -30.520710 -5.480059 1.434881 10.964533 53.993473 0.000000 0.000000 0.000000 7.125000 0.000000 0.000000 76.195677 71.110768 -56.102211
8.662190 15.179898 -27.588067 -183.709603 -11.465530 -183.961514 0.000000 0.000000 0.000000 -37.370806 -3.376092 12.612570 0.704384 5.364212 14.950372 1.305599 6.927905 -25.101956 0.002384 0.190908 0.524607 0.000000 0.000000 0.000000 10.843458 22.141872 -20.168315 -4.200814 -12.418047 37.234783 -0.695937 -9.806208 -22.217727 -0.581968 4.860010 -13.514499 -2.509070 -3.275785 2.449900 0.633842 -4.573406 -3.813321 2.363205 -2.198182 -5.072048 -1.689344 -0.232539 -1.358874 -1.635541 -0.713149 13.404276 -0.311145 -0.808579 4.676187 0.000000 0.000000 0.000000 4.842814 7.896467 -22.007802 20.916184 -31.730391 6.005824 6.857738 14.845362 31.987588 0.000000 0.000000 0.000000 -7.125000 0.000000 0.000000 -14.008039 -1.358601 -14.781055 0.000000 0.000000 0.000000 -10.974695 18.928564 21.552379 -19.437744 -29.958923 -5.247622 0.689151 12.801902 54.072638 0.000000 0.000000 0.000000 7.125000 0.000000 0.000000 76.067647 71.390458 -56.320596
8.645193 15.162428 -27.865924 -183.931179 -13.375751 -183.396023 0.000000 0.000000 0.000000 -36.677863 -2.543008 12.922577 0.731834 5.465625 15.241414 1.355660 4.775539 -24.178292 0.144328 -2.424725 -6.682075 0.000000 0.000000 0.000000 9.581717 28.155797 -17.652999 -2.451349 -9.746847 28.162521 -0.544818 -11.240517 -22.198203 -1.295363 7.210794 -20.341538 -3.226206 -3.821472 2.537125 0.660644 -5.351209 -3.981087 2.846417 -2.553759 -5.190838 -0.819918 -0.146579 -0.982174 -2.267449 -0.587757 13.259288 -0.669209 -0.734626 4.543722 0.000000 0.000000 0.000000 4.355602 7.803522 -22.631899 21.037111 -31.871666 6.069564 6.917614 14.567925 32.099666 0.000000 0.000000 0.000000 -7.125000 0.000000 0.000000 -13.980103 -1.474165 -14.777687 0.000000 0.000000 0.000000 -11.258834 20.093474 20.431408 -18.910774 -29.307658 -4.987087 0.929924 13.333174 54.514795 0.000000 0.000000 0.000000 7.125000 0.000000 0.000000 77.449224 71.409631 -57.670763
